# procedural low-poly stone
v 0.050466 0.001090 -0.017993
v 0.049996 0.022630 -0.015996
v 0.018680 0.035035 -0.017295
v -0.014543 0.031104 -0.016593
v -0.043879 0.020884 -0.018701
v -0.049188 0.002131 -0.017495
v -0.052329 -0.020167 -0.016653
v -0.015575 -0.037875 -0.016922
v 0.022313 -0.033641 -0.017631
v 0.050028 -0.023906 -0.015678
v 0.054627 0.003574 0.000976
v 0.047531 0.023422 0.003400
v 0.017364 0.034133 -0.002776
v -0.015503 0.040493 -0.000543
v -0.047334 0.022085 0.000460
v -0.071091 0.001602 -0.000297
v -0.058257 -0.021396 0.002518
v -0.011321 -0.038519 0.001084
v 0.018879 -0.034102 -0.002239
v 0.043273 -0.018647 -0.000521
v 0.036326 0.002453 0.014656
v 0.037968 0.018980 0.011927
v 0.007351 0.018508 0.012735
v -0.011094 0.018997 0.011989
v -0.021382 0.009728 0.015208
v -0.030715 0.002591 0.018656
v -0.021963 -0.010100 0.017591
v -0.010335 -0.021884 0.014999
v 0.013296 -0.019672 0.013781
v 0.037690 -0.018971 0.011404
v 0.000000 0.000000 -0.019004
v -0.000445 0.002039 0.021365
f 1 2 12
f 1 12 11
f 11 12 22
f 11 22 21
f 31 2 1
f 32 21 22
f 2 3 13
f 2 13 12
f 12 13 22
f 13 23 22
f 31 3 2
f 32 22 23
f 3 4 14
f 3 14 13
f 13 14 24
f 13 24 23
f 31 4 3
f 32 23 24
f 4 5 15
f 4 15 14
f 14 15 24
f 15 25 24
f 31 5 4
f 32 24 25
f 5 6 16
f 5 16 15
f 15 16 26
f 15 26 25
f 31 6 5
f 32 25 26
f 6 7 17
f 6 17 16
f 16 17 26
f 17 27 26
f 31 7 6
f 32 26 27
f 7 8 18
f 7 18 17
f 17 18 28
f 17 28 27
f 31 8 7
f 32 27 28
f 8 9 19
f 8 19 18
f 18 19 28
f 19 29 28
f 31 9 8
f 32 28 29
f 9 10 20
f 9 20 19
f 19 20 29
f 20 30 29
f 31 10 9
f 32 29 30
f 10 1 11
f 10 11 20
f 20 11 30
f 11 21 30
f 31 1 10
f 32 30 21
