# procedural low-poly stone
v 0.032571 0.001219 -0.010739
v 0.026606 0.014979 -0.009235
v 0.010076 0.016228 -0.010327
v -0.011499 0.020775 -0.009624
v -0.029611 0.012061 -0.009190
v -0.030078 -0.001909 -0.010455
v -0.022314 -0.012531 -0.009470
v -0.008602 -0.021310 -0.009127
v 0.011354 -0.017002 -0.009480
v 0.029003 -0.012238 -0.010972
v 0.032584 -0.000228 0.000725
v 0.029412 0.015657 -0.001564
v 0.014202 0.023572 -0.000262
v -0.011050 0.023785 -0.000650
v -0.025940 0.009247 -0.000295
v -0.040288 -0.002260 -0.000617
v -0.026769 -0.014245 -0.000397
v -0.008151 -0.024715 0.000674
v 0.012148 -0.021440 -0.000264
v 0.027346 -0.012468 0.001629
v 0.023101 0.000405 0.007911
v 0.017959 0.008472 0.010595
v 0.005615 0.010956 0.010234
v -0.005981 0.008854 0.006065
v -0.020916 0.007670 0.009894
v -0.019467 -0.000497 0.007611
v -0.013353 -0.009026 0.008803
v -0.003755 -0.011123 0.008959
v 0.006207 -0.011718 0.011165
v 0.017359 -0.007286 0.007553
v 0.000000 0.000000 -0.010947
v -0.000803 0.001278 0.009748
f 1 2 12
f 1 12 11
f 11 12 21
f 12 22 21
f 31 2 1
f 32 21 22
f 2 3 13
f 2 13 12
f 12 13 23
f 12 23 22
f 31 3 2
f 32 22 23
f 3 4 14
f 3 14 13
f 13 14 23
f 14 24 23
f 31 4 3
f 32 23 24
f 4 5 15
f 4 15 14
f 14 15 24
f 15 25 24
f 31 5 4
f 32 24 25
f 5 6 16
f 5 16 15
f 15 16 26
f 15 26 25
f 31 6 5
f 32 25 26
f 6 7 17
f 6 17 16
f 16 17 26
f 17 27 26
f 31 7 6
f 32 26 27
f 7 8 18
f 7 18 17
f 17 18 28
f 17 28 27
f 31 8 7
f 32 27 28
f 8 9 19
f 8 19 18
f 18 19 29
f 18 29 28
f 31 9 8
f 32 28 29
f 9 10 20
f 9 20 19
f 19 20 30
f 19 30 29
f 31 10 9
f 32 29 30
f 10 1 11
f 10 11 20
f 20 11 21
f 20 21 30
f 31 1 10
f 32 30 21
