# procedural low-poly stone
v 0.035686 0.001440 -0.012094
v 0.036013 0.014954 -0.012219
v 0.019018 0.023401 -0.013304
v 0.001383 0.026402 -0.011967
v -0.021321 0.019470 -0.013026
v -0.033118 0.011352 -0.012974
v -0.046262 0.000286 -0.013410
v -0.039268 -0.015689 -0.012970
v -0.018383 -0.021977 -0.011731
v 0.003706 -0.025331 -0.013797
v 0.017409 -0.020654 -0.012321
v 0.035651 -0.011734 -0.013099
v 0.042497 0.000205 0.001981
v 0.031924 0.012161 0.000582
v 0.018077 0.024462 0.000480
v -0.001327 0.023944 -0.000250
v -0.020976 0.020281 -0.000315
v -0.036833 0.013615 -0.001311
v -0.049635 0.001755 0.001459
v -0.039590 -0.017686 0.001061
v -0.016702 -0.021809 -0.000555
v 0.000500 -0.023098 -0.000770
v 0.021460 -0.025991 -0.000406
v 0.039409 -0.013838 0.000040
v 0.033162 0.001044 0.009851
v 0.027893 0.011562 0.010070
v 0.011262 0.013368 0.013450
v 0.001025 0.021696 0.014291
v -0.008688 0.009473 0.014383
v -0.024863 0.010727 0.011796
v -0.034613 -0.000895 0.012616
v -0.024177 -0.007676 0.009774
v -0.012667 -0.015172 0.008453
v 0.003167 -0.018708 0.012067
v 0.011740 -0.013113 0.010553
v 0.022698 -0.008775 0.009213
v 0.000000 0.000000 -0.013866
v 0.001795 -0.000917 0.013735
f 1 2 14
f 1 14 13
f 13 14 26
f 13 26 25
f 37 2 1
f 38 25 26
f 2 3 15
f 2 15 14
f 14 15 27
f 14 27 26
f 37 3 2
f 38 26 27
f 3 4 16
f 3 16 15
f 15 16 27
f 16 28 27
f 37 4 3
f 38 27 28
f 4 5 17
f 4 17 16
f 16 17 29
f 16 29 28
f 37 5 4
f 38 28 29
f 5 6 18
f 5 18 17
f 17 18 30
f 17 30 29
f 37 6 5
f 38 29 30
f 6 7 19
f 6 19 18
f 18 19 31
f 18 31 30
f 37 7 6
f 38 30 31
f 7 8 20
f 7 20 19
f 19 20 31
f 20 32 31
f 37 8 7
f 38 31 32
f 8 9 21
f 8 21 20
f 20 21 32
f 21 33 32
f 37 9 8
f 38 32 33
f 9 10 22
f 9 22 21
f 21 22 33
f 22 34 33
f 37 10 9
f 38 33 34
f 10 11 23
f 10 23 22
f 22 23 34
f 23 35 34
f 37 11 10
f 38 34 35
f 11 12 24
f 11 24 23
f 23 24 36
f 23 36 35
f 37 12 11
f 38 35 36
f 12 1 13
f 12 13 24
f 24 13 36
f 13 25 36
f 37 1 12
f 38 36 25
