# procedural low-poly stone
v 0.031399 0.001335 -0.010781
v 0.024961 0.013612 -0.009267
v 0.006003 0.021666 -0.009864
v -0.014800 0.017422 -0.010119
v -0.024602 0.006116 -0.010893
v -0.025436 -0.007221 -0.010619
v -0.013403 -0.020737 -0.010523
v 0.002906 -0.019973 -0.009807
v 0.021978 -0.013421 -0.010814
v 0.033898 0.001899 -0.001540
v 0.020590 0.011800 -0.000729
v 0.006449 0.020782 0.000467
v -0.017873 0.018346 0.000203
v -0.027821 0.006024 -0.000320
v -0.030529 -0.007080 -0.000165
v -0.013873 -0.019780 -0.001360
v 0.005136 -0.024961 0.000723
v 0.019304 -0.013185 0.001530
v 0.021070 0.001173 0.007952
v 0.010282 0.005425 0.009117
v 0.003683 0.013893 0.011278
v -0.013762 0.013925 0.010454
v -0.017650 0.004010 0.008603
v -0.013405 -0.002993 0.010817
v -0.011915 -0.016828 0.007747
v -0.000201 -0.012799 0.007256
v 0.017903 -0.011621 0.008755
v 0.000000 0.000000 -0.011122
v -0.000530 0.000687 0.010824
f 1 2 11
f 1 11 10
f 10 11 19
f 11 20 19
f 28 2 1
f 29 19 20
f 2 3 12
f 2 12 11
f 11 12 20
f 12 21 20
f 28 3 2
f 29 20 21
f 3 4 13
f 3 13 12
f 12 13 22
f 12 22 21
f 28 4 3
f 29 21 22
f 4 5 14
f 4 14 13
f 13 14 22
f 14 23 22
f 28 5 4
f 29 22 23
f 5 6 15
f 5 15 14
f 14 15 24
f 14 24 23
f 28 6 5
f 29 23 24
f 6 7 16
f 6 16 15
f 15 16 25
f 15 25 24
f 28 7 6
f 29 24 25
f 7 8 17
f 7 17 16
f 16 17 26
f 16 26 25
f 28 8 7
f 29 25 26
f 8 9 18
f 8 18 17
f 17 18 27
f 17 27 26
f 28 9 8
f 29 26 27
f 9 1 10
f 9 10 18
f 18 10 27
f 10 19 27
f 28 1 9
f 29 27 19
