# procedural low-poly stone
v 0.027046 0.001773 -0.009093
v 0.027429 0.010990 -0.009785
v 0.013067 0.017999 -0.009903
v -0.002367 0.020782 -0.009336
v -0.017638 0.016926 -0.008597
v -0.025842 0.009177 -0.009102
v -0.031738 -0.001363 -0.008454
v -0.021979 -0.007175 -0.009599
v -0.010606 -0.015732 -0.009310
v 0.002249 -0.018314 -0.009747
v 0.012695 -0.018147 -0.008394
v 0.024802 -0.011413 -0.008639
v 0.029949 0.001374 0.000883
v 0.029132 0.010041 -0.000320
v 0.012242 0.018224 -0.001398
v -0.003681 0.022827 0.001743
v -0.018298 0.017394 0.001476
v -0.025846 0.009473 -0.001259
v -0.027919 -0.002644 -0.000226
v -0.029437 -0.010663 -0.001053
v -0.012845 -0.017314 0.001331
v 0.002968 -0.024473 0.001363
v 0.013504 -0.019421 -0.000544
v 0.023662 -0.009781 -0.001375
v 0.015711 0.000435 0.010382
v 0.014725 0.005626 0.006362
v 0.005174 0.008746 0.007941
v 0.000592 0.011826 0.009804
v -0.006901 0.008420 0.007999
v -0.010604 0.003200 0.007277
v -0.016359 -0.001130 0.010427
v -0.024933 -0.007653 0.008847
v -0.005764 -0.011738 0.009306
v 0.001505 -0.009702 0.006310
v 0.010712 -0.015921 0.007293
v 0.018552 -0.009343 0.006311
v 0.000000 0.000000 -0.009850
v 0.001099 0.000059 0.009837
f 1 2 14
f 1 14 13
f 13 14 26
f 13 26 25
f 37 2 1
f 38 25 26
f 2 3 15
f 2 15 14
f 14 15 27
f 14 27 26
f 37 3 2
f 38 26 27
f 3 4 16
f 3 16 15
f 15 16 27
f 16 28 27
f 37 4 3
f 38 27 28
f 4 5 17
f 4 17 16
f 16 17 29
f 16 29 28
f 37 5 4
f 38 28 29
f 5 6 18
f 5 18 17
f 17 18 30
f 17 30 29
f 37 6 5
f 38 29 30
f 6 7 19
f 6 19 18
f 18 19 30
f 19 31 30
f 37 7 6
f 38 30 31
f 7 8 20
f 7 20 19
f 19 20 31
f 20 32 31
f 37 8 7
f 38 31 32
f 8 9 21
f 8 21 20
f 20 21 33
f 20 33 32
f 37 9 8
f 38 32 33
f 9 10 22
f 9 22 21
f 21 22 33
f 22 34 33
f 37 10 9
f 38 33 34
f 10 11 23
f 10 23 22
f 22 23 35
f 22 35 34
f 37 11 10
f 38 34 35
f 11 12 24
f 11 24 23
f 23 24 36
f 23 36 35
f 37 12 11
f 38 35 36
f 12 1 13
f 12 13 24
f 24 13 36
f 13 25 36
f 37 1 12
f 38 36 25
