# procedural low-poly stone
v 0.051476 0.001351 -0.014954
v 0.036220 0.019149 -0.015514
v 0.010183 0.026735 -0.016593
v -0.020852 0.024352 -0.016698
v -0.039403 0.009384 -0.015877
v -0.037852 -0.009723 -0.015074
v -0.018678 -0.024170 -0.016111
v 0.011160 -0.027791 -0.015850
v 0.038337 -0.017468 -0.014783
v 0.050595 0.001366 0.002837
v 0.038413 0.019695 0.002662
v 0.008265 0.026972 0.000220
v -0.027185 0.030110 0.002410
v -0.055332 0.011462 -0.000684
v -0.046211 -0.013821 0.000768
v -0.022426 -0.025590 0.001259
v 0.011677 -0.029159 -0.000624
v 0.040471 -0.018959 -0.000835
v 0.022461 -0.000849 0.012457
v 0.032439 0.014939 0.016533
v 0.009579 0.025149 0.009667
v -0.011354 0.011374 0.013922
v -0.032412 0.006355 0.017181
v -0.039530 -0.012734 0.016411
v -0.012404 -0.014112 0.011620
v 0.009104 -0.016496 0.012575
v 0.021141 -0.008732 0.013511
v 0.000000 0.000000 -0.017624
v 0.002668 0.001468 0.017246
f 1 2 11
f 1 11 10
f 10 11 19
f 11 20 19
f 28 2 1
f 29 19 20
f 2 3 12
f 2 12 11
f 11 12 20
f 12 21 20
f 28 3 2
f 29 20 21
f 3 4 13
f 3 13 12
f 12 13 22
f 12 22 21
f 28 4 3
f 29 21 22
f 4 5 14
f 4 14 13
f 13 14 23
f 13 23 22
f 28 5 4
f 29 22 23
f 5 6 15
f 5 15 14
f 14 15 23
f 15 24 23
f 28 6 5
f 29 23 24
f 6 7 16
f 6 16 15
f 15 16 25
f 15 25 24
f 28 7 6
f 29 24 25
f 7 8 17
f 7 17 16
f 16 17 25
f 17 26 25
f 28 8 7
f 29 25 26
f 8 9 18
f 8 18 17
f 17 18 27
f 17 27 26
f 28 9 8
f 29 26 27
f 9 1 10
f 9 10 18
f 18 10 27
f 10 19 27
f 28 1 9
f 29 27 19
