# procedural low-poly stone
v 0.029981 0.000405 -0.010144
v 0.026168 0.011765 -0.009935
v 0.012589 0.020401 -0.011223
v -0.002536 0.024259 -0.010067
v -0.024343 0.023226 -0.011998
v -0.029545 0.007027 -0.011922
v -0.036196 -0.009262 -0.010599
v -0.022003 -0.019328 -0.011432
v -0.002131 -0.023758 -0.010556
v 0.015754 -0.025736 -0.010566
v 0.026725 -0.013303 -0.011493
v 0.033454 0.001012 0.000662
v 0.034602 0.016050 0.000507
v 0.013580 0.023784 0.000276
v -0.002901 0.024812 -0.001771
v -0.021594 0.019329 -0.000152
v -0.034894 0.006533 0.002018
v -0.035028 -0.009221 0.001461
v -0.021969 -0.018611 -0.001206
v -0.005023 -0.026774 -0.000635
v 0.017602 -0.031801 0.000938
v 0.037350 -0.019157 0.001269
v 0.014863 -0.000088 0.008750
v 0.017706 0.006218 0.012467
v 0.012041 0.019252 0.007952
v -0.000905 0.014848 0.009074
v -0.015820 0.015873 0.007442
v -0.019109 0.005529 0.011205
v -0.020740 -0.004910 0.007625
v -0.022070 -0.017583 0.008145
v -0.000301 -0.015326 0.007225
v 0.009279 -0.012616 0.009299
v 0.019545 -0.009116 0.009413
v 0.000000 0.000000 -0.011948
v 0.000830 0.002159 0.012100
f 1 2 13
f 1 13 12
f 12 13 24
f 12 24 23
f 34 2 1
f 35 23 24
f 2 3 14
f 2 14 13
f 13 14 25
f 13 25 24
f 34 3 2
f 35 24 25
f 3 4 15
f 3 15 14
f 14 15 25
f 15 26 25
f 34 4 3
f 35 25 26
f 4 5 16
f 4 16 15
f 15 16 26
f 16 27 26
f 34 5 4
f 35 26 27
f 5 6 17
f 5 17 16
f 16 17 28
f 16 28 27
f 34 6 5
f 35 27 28
f 6 7 18
f 6 18 17
f 17 18 29
f 17 29 28
f 34 7 6
f 35 28 29
f 7 8 19
f 7 19 18
f 18 19 30
f 18 30 29
f 34 8 7
f 35 29 30
f 8 9 20
f 8 20 19
f 19 20 30
f 20 31 30
f 34 9 8
f 35 30 31
f 9 10 21
f 9 21 20
f 20 21 31
f 21 32 31
f 34 10 9
f 35 31 32
f 10 11 22
f 10 22 21
f 21 22 33
f 21 33 32
f 34 11 10
f 35 32 33
f 11 1 12
f 11 12 22
f 22 12 33
f 12 23 33
f 34 1 11
f 35 33 23
