# procedural low-poly stone
v 0.039891 -0.000275 -0.011506
v 0.030686 0.015716 -0.010924
v 0.008393 0.024054 -0.011572
v -0.009764 0.023314 -0.011022
v -0.026766 0.014525 -0.011625
v -0.034230 -0.000055 -0.011977
v -0.034192 -0.015755 -0.010323
v -0.007833 -0.021785 -0.011708
v 0.009482 -0.022113 -0.010011
v 0.028190 -0.012266 -0.011965
v 0.041523 -0.001348 0.001188
v 0.034925 0.019184 -0.001478
v 0.009408 0.027644 -0.001662
v -0.008582 0.026903 -0.000229
v -0.036521 0.018264 0.000237
v -0.041278 0.001850 0.000709
v -0.034148 -0.015620 0.000849
v -0.010321 -0.026916 -0.000663
v 0.008294 -0.025470 0.001634
v 0.029811 -0.014532 0.001996
v 0.020402 -0.001253 0.012519
v 0.023995 0.014815 0.007916
v 0.007430 0.015370 0.006908
v -0.008923 0.020602 0.011333
v -0.014079 0.007605 0.007515
v -0.026726 0.001370 0.008563
v -0.025007 -0.010772 0.009809
v -0.003769 -0.010635 0.008875
v 0.012177 -0.019628 0.012390
v 0.023519 -0.011108 0.009140
v 0.000000 0.000000 -0.011707
v 0.000596 -0.000209 0.011235
f 1 2 12
f 1 12 11
f 11 12 21
f 12 22 21
f 31 2 1
f 32 21 22
f 2 3 13
f 2 13 12
f 12 13 23
f 12 23 22
f 31 3 2
f 32 22 23
f 3 4 14
f 3 14 13
f 13 14 23
f 14 24 23
f 31 4 3
f 32 23 24
f 4 5 15
f 4 15 14
f 14 15 25
f 14 25 24
f 31 5 4
f 32 24 25
f 5 6 16
f 5 16 15
f 15 16 25
f 16 26 25
f 31 6 5
f 32 25 26
f 6 7 17
f 6 17 16
f 16 17 26
f 17 27 26
f 31 7 6
f 32 26 27
f 7 8 18
f 7 18 17
f 17 18 27
f 18 28 27
f 31 8 7
f 32 27 28
f 8 9 19
f 8 19 18
f 18 19 29
f 18 29 28
f 31 9 8
f 32 28 29
f 9 10 20
f 9 20 19
f 19 20 29
f 20 30 29
f 31 10 9
f 32 29 30
f 10 1 11
f 10 11 20
f 20 11 30
f 11 21 30
f 31 1 10
f 32 30 21
