# procedural low-poly stone
v 0.039730 -0.002216 -0.010808
v 0.038904 0.012756 -0.012614
v 0.020947 0.020396 -0.012345
v 0.000586 0.024778 -0.011024
v -0.020536 0.023052 -0.012375
v -0.041117 0.010867 -0.011799
v -0.042134 0.000782 -0.010757
v -0.034441 -0.013987 -0.012415
v -0.017635 -0.020369 -0.012096
v -0.001628 -0.019441 -0.012928
v 0.018231 -0.015871 -0.011693
v 0.035052 -0.009332 -0.011560
v 0.038261 -0.003315 -0.000081
v 0.036115 0.011883 0.000790
v 0.022738 0.022764 0.001383
v -0.001936 0.021888 -0.001147
v -0.019774 0.021627 -0.002063
v -0.044523 0.013316 0.001358
v -0.046870 -0.000945 0.001450
v -0.038502 -0.016125 0.000355
v -0.018704 -0.020321 -0.001847
v -0.000963 -0.025332 -0.000230
v 0.023624 -0.019428 0.001374
v 0.039436 -0.009271 0.002211
v 0.021175 -0.000567 0.007329
v 0.021444 0.006278 0.012664
v 0.018842 0.017128 0.012021
v -0.001332 0.011931 0.012021
v -0.013107 0.012411 0.008415
v -0.026999 0.007176 0.007995
v -0.035344 0.001569 0.008527
v -0.024234 -0.009817 0.007586
v -0.014621 -0.015708 0.008780
v 0.000329 -0.016409 0.007295
v 0.010168 -0.008649 0.007641
v 0.030344 -0.009455 0.009389
v 0.000000 0.000000 -0.012250
v -0.000127 -0.001911 0.012148
f 1 2 14
f 1 14 13
f 13 14 26
f 13 26 25
f 37 2 1
f 38 25 26
f 2 3 15
f 2 15 14
f 14 15 26
f 15 27 26
f 37 3 2
f 38 26 27
f 3 4 16
f 3 16 15
f 15 16 28
f 15 28 27
f 37 4 3
f 38 27 28
f 4 5 17
f 4 17 16
f 16 17 28
f 17 29 28
f 37 5 4
f 38 28 29
f 5 6 18
f 5 18 17
f 17 18 30
f 17 30 29
f 37 6 5
f 38 29 30
f 6 7 19
f 6 19 18
f 18 19 31
f 18 31 30
f 37 7 6
f 38 30 31
f 7 8 20
f 7 20 19
f 19 20 32
f 19 32 31
f 37 8 7
f 38 31 32
f 8 9 21
f 8 21 20
f 20 21 32
f 21 33 32
f 37 9 8
f 38 32 33
f 9 10 22
f 9 22 21
f 21 22 33
f 22 34 33
f 37 10 9
f 38 33 34
f 10 11 23
f 10 23 22
f 22 23 35
f 22 35 34
f 37 11 10
f 38 34 35
f 11 12 24
f 11 24 23
f 23 24 36
f 23 36 35
f 37 12 11
f 38 35 36
f 12 1 13
f 12 13 24
f 24 13 36
f 13 25 36
f 37 1 12
f 38 36 25
