# procedural low-poly stone
v 0.033100 0.001949 -0.009270
v 0.026307 0.014060 -0.010960
v 0.007285 0.018496 -0.009701
v -0.008288 0.019969 -0.010188
v -0.023879 0.011119 -0.010052
v -0.031353 -0.002289 -0.010743
v -0.024010 -0.016002 -0.009503
v -0.010575 -0.020371 -0.010087
v 0.009129 -0.020938 -0.010795
v 0.022070 -0.013372 -0.009160
v 0.033149 0.001052 -0.000851
v 0.029158 0.015317 -0.000685
v 0.007076 0.024161 0.001746
v -0.012274 0.024368 0.000292
v -0.022851 0.010190 -0.000490
v -0.028469 -0.000885 -0.001392
v -0.030128 -0.017875 0.000427
v -0.011804 -0.021583 0.001286
v 0.009619 -0.021975 -0.000691
v 0.026153 -0.017949 0.000322
v 0.026533 0.000610 0.008299
v 0.018004 0.007768 0.008618
v 0.006384 0.014693 0.008823
v -0.009715 0.018200 0.007640
v -0.021614 0.010796 0.006385
v -0.019542 -0.002066 0.006578
v -0.021412 -0.013587 0.008039
v -0.006059 -0.016248 0.010889
v 0.007877 -0.016666 0.008590
v 0.016391 -0.010371 0.007484
v 0.000000 0.000000 -0.011256
v -0.001282 0.000379 0.012897
f 1 2 12
f 1 12 11
f 11 12 22
f 11 22 21
f 31 2 1
f 32 21 22
f 2 3 13
f 2 13 12
f 12 13 23
f 12 23 22
f 31 3 2
f 32 22 23
f 3 4 14
f 3 14 13
f 13 14 23
f 14 24 23
f 31 4 3
f 32 23 24
f 4 5 15
f 4 15 14
f 14 15 24
f 15 25 24
f 31 5 4
f 32 24 25
f 5 6 16
f 5 16 15
f 15 16 25
f 16 26 25
f 31 6 5
f 32 25 26
f 6 7 17
f 6 17 16
f 16 17 26
f 17 27 26
f 31 7 6
f 32 26 27
f 7 8 18
f 7 18 17
f 17 18 28
f 17 28 27
f 31 8 7
f 32 27 28
f 8 9 19
f 8 19 18
f 18 19 28
f 19 29 28
f 31 9 8
f 32 28 29
f 9 10 20
f 9 20 19
f 19 20 30
f 19 30 29
f 31 10 9
f 32 29 30
f 10 1 11
f 10 11 20
f 20 11 30
f 11 21 30
f 31 1 10
f 32 30 21
