# procedural low-poly stone
v 0.040634 0.000208 -0.013825
v 0.038147 0.015398 -0.014857
v 0.019580 0.026714 -0.012648
v -0.013418 0.020554 -0.013359
v -0.039786 0.017686 -0.014142
v -0.040220 -0.001938 -0.012445
v -0.029591 -0.014193 -0.012996
v -0.008586 -0.022543 -0.012760
v 0.014378 -0.020167 -0.014244
v 0.038456 -0.016599 -0.013320
v 0.053313 -0.000856 -0.000232
v 0.034531 0.016067 -0.001075
v 0.015947 0.024327 0.001202
v -0.015063 0.023205 0.002018
v -0.030924 0.013120 -0.000068
v -0.050874 -0.001793 0.001997
v -0.042684 -0.018309 -0.000634
v -0.008610 -0.026219 0.000929
v 0.016050 -0.025033 -0.000943
v 0.033850 -0.016049 0.000380
v 0.031160 0.000388 0.012876
v 0.029336 0.011492 0.014274
v 0.015641 0.016786 0.014296
v -0.006379 0.011327 0.010380
v -0.018624 0.008269 0.015660
v -0.035499 -0.003530 0.008302
v -0.023041 -0.011397 0.010854
v -0.006289 -0.016793 0.013513
v 0.007740 -0.012931 0.012976
v 0.029754 -0.012742 0.011217
v 0.000000 0.000000 -0.015580
v 0.001104 0.000759 0.013876
f 1 2 12
f 1 12 11
f 11 12 21
f 12 22 21
f 31 2 1
f 32 21 22
f 2 3 13
f 2 13 12
f 12 13 23
f 12 23 22
f 31 3 2
f 32 22 23
f 3 4 14
f 3 14 13
f 13 14 24
f 13 24 23
f 31 4 3
f 32 23 24
f 4 5 15
f 4 15 14
f 14 15 24
f 15 25 24
f 31 5 4
f 32 24 25
f 5 6 16
f 5 16 15
f 15 16 25
f 16 26 25
f 31 6 5
f 32 25 26
f 6 7 17
f 6 17 16
f 16 17 27
f 16 27 26
f 31 7 6
f 32 26 27
f 7 8 18
f 7 18 17
f 17 18 28
f 17 28 27
f 31 8 7
f 32 27 28
f 8 9 19
f 8 19 18
f 18 19 28
f 19 29 28
f 31 9 8
f 32 28 29
f 9 10 20
f 9 20 19
f 19 20 30
f 19 30 29
f 31 10 9
f 32 29 30
f 10 1 11
f 10 11 20
f 20 11 21
f 20 21 30
f 31 1 10
f 32 30 21
