# procedural low-poly stone
v 0.047930 0.000914 -0.015898
v 0.032154 0.022245 -0.015893
v 0.010275 0.027549 -0.015080
v -0.021340 0.023584 -0.016009
v -0.039422 0.012333 -0.016032
v -0.039459 -0.010710 -0.016144
v -0.024090 -0.027356 -0.015036
v 0.013159 -0.033613 -0.016931
v 0.030967 -0.016173 -0.014887
v 0.055661 -0.000184 0.000758
v 0.032559 0.023070 -0.002017
v 0.016806 0.039970 -0.002090
v -0.029395 0.032644 0.001799
v -0.048208 0.013566 0.000342
v -0.046084 -0.013952 -0.002455
v -0.029681 -0.034242 0.000252
v 0.012471 -0.028777 0.000363
v 0.038018 -0.019116 0.001515
v 0.020561 0.000848 0.013916
v 0.019498 0.014651 0.013002
v 0.006113 0.015665 0.009452
v -0.014360 0.018065 0.011906
v -0.029303 0.007778 0.012622
v -0.029834 -0.008671 0.011372
v -0.024761 -0.024695 0.016665
v 0.011912 -0.025187 0.012984
v 0.020407 -0.012135 0.012721
v 0.000000 0.000000 -0.018094
v 0.001952 0.002382 0.018983
f 1 2 11
f 1 11 10
f 10 11 19
f 11 20 19
f 28 2 1
f 29 19 20
f 2 3 12
f 2 12 11
f 11 12 21
f 11 21 20
f 28 3 2
f 29 20 21
f 3 4 13
f 3 13 12
f 12 13 21
f 13 22 21
f 28 4 3
f 29 21 22
f 4 5 14
f 4 14 13
f 13 14 22
f 14 23 22
f 28 5 4
f 29 22 23
f 5 6 15
f 5 15 14
f 14 15 23
f 15 24 23
f 28 6 5
f 29 23 24
f 6 7 16
f 6 16 15
f 15 16 24
f 16 25 24
f 28 7 6
f 29 24 25
f 7 8 17
f 7 17 16
f 16 17 26
f 16 26 25
f 28 8 7
f 29 25 26
f 8 9 18
f 8 18 17
f 17 18 26
f 18 27 26
f 28 9 8
f 29 26 27
f 9 1 10
f 9 10 18
f 18 10 27
f 10 19 27
f 28 1 9
f 29 27 19
