# procedural low-poly stone
v 0.025323 -0.000092 -0.008773
v 0.023206 0.011656 -0.008628
v 0.003578 0.015267 -0.008987
v -0.014536 0.016975 -0.008698
v -0.021594 0.004087 -0.007595
v -0.019991 -0.006430 -0.008526
v -0.012701 -0.013699 -0.008040
v 0.004122 -0.016380 -0.008522
v 0.021175 -0.013197 -0.008484
v 0.026056 0.000110 0.001197
v 0.020376 0.009550 -0.000334
v 0.005005 0.019873 0.000703
v -0.015137 0.016134 0.001187
v -0.030785 0.004360 0.001373
v -0.028078 -0.010596 -0.000187
v -0.015975 -0.016927 -0.000594
v 0.006675 -0.018872 -0.001059
v 0.016633 -0.011170 -0.000019
v 0.017547 0.000097 0.007507
v 0.011680 0.004924 0.008683
v 0.001254 0.012379 0.009099
v -0.006643 0.006899 0.005541
v -0.016085 0.004478 0.009230
v -0.018582 -0.006394 0.008089
v -0.009770 -0.010776 0.007376
v 0.002542 -0.014226 0.005059
v 0.015509 -0.009004 0.005965
v 0.000000 0.000000 -0.008855
v 0.000915 -0.000294 0.009346
f 1 2 11
f 1 11 10
f 10 11 19
f 11 20 19
f 28 2 1
f 29 19 20
f 2 3 12
f 2 12 11
f 11 12 21
f 11 21 20
f 28 3 2
f 29 20 21
f 3 4 13
f 3 13 12
f 12 13 22
f 12 22 21
f 28 4 3
f 29 21 22
f 4 5 14
f 4 14 13
f 13 14 22
f 14 23 22
f 28 5 4
f 29 22 23
f 5 6 15
f 5 15 14
f 14 15 23
f 15 24 23
f 28 6 5
f 29 23 24
f 6 7 16
f 6 16 15
f 15 16 25
f 15 25 24
f 28 7 6
f 29 24 25
f 7 8 17
f 7 17 16
f 16 17 26
f 16 26 25
f 28 8 7
f 29 25 26
f 8 9 18
f 8 18 17
f 17 18 27
f 17 27 26
f 28 9 8
f 29 26 27
f 9 1 10
f 9 10 18
f 18 10 27
f 10 19 27
f 28 1 9
f 29 27 19
