# procedural low-poly stone
v 0.039961 0.000845 -0.011753
v 0.029842 0.017453 -0.011436
v 0.011682 0.022275 -0.010343
v -0.002719 0.029610 -0.011698
v -0.020119 0.022744 -0.010467
v -0.037370 0.007654 -0.010351
v -0.034554 -0.006329 -0.010089
v -0.021157 -0.018195 -0.011471
v -0.006914 -0.025205 -0.010619
v 0.011521 -0.023944 -0.009866
v 0.030475 -0.014746 -0.010678
v 0.040140 0.000903 0.000540
v 0.029571 0.018119 -0.000096
v 0.014501 0.027007 -0.001456
v -0.005208 0.029570 0.000921
v -0.023622 0.027910 0.001887
v -0.036851 0.009428 -0.001222
v -0.035236 -0.005490 0.000886
v -0.021501 -0.020846 0.000306
v -0.007083 -0.026948 -0.000431
v 0.011826 -0.030051 0.001295
v 0.032639 -0.013413 -0.001505
v 0.030210 0.001393 0.012433
v 0.022105 0.011852 0.010434
v 0.007098 0.018535 0.008617
v 0.000047 0.017000 0.010436
v -0.014858 0.014669 0.010872
v -0.015067 0.003329 0.007492
v -0.020372 -0.005316 0.011632
v -0.010665 -0.010258 0.009997
v -0.003039 -0.020720 0.006635
v 0.009492 -0.022814 0.006978
v 0.027627 -0.014764 0.009454
v 0.000000 0.000000 -0.011520
v 0.002545 -0.000028 0.010445
f 1 2 13
f 1 13 12
f 12 13 23
f 13 24 23
f 34 2 1
f 35 23 24
f 2 3 14
f 2 14 13
f 13 14 25
f 13 25 24
f 34 3 2
f 35 24 25
f 3 4 15
f 3 15 14
f 14 15 25
f 15 26 25
f 34 4 3
f 35 25 26
f 4 5 16
f 4 16 15
f 15 16 27
f 15 27 26
f 34 5 4
f 35 26 27
f 5 6 17
f 5 17 16
f 16 17 27
f 17 28 27
f 34 6 5
f 35 27 28
f 6 7 18
f 6 18 17
f 17 18 29
f 17 29 28
f 34 7 6
f 35 28 29
f 7 8 19
f 7 19 18
f 18 19 30
f 18 30 29
f 34 8 7
f 35 29 30
f 8 9 20
f 8 20 19
f 19 20 31
f 19 31 30
f 34 9 8
f 35 30 31
f 9 10 21
f 9 21 20
f 20 21 32
f 20 32 31
f 34 10 9
f 35 31 32
f 10 11 22
f 10 22 21
f 21 22 32
f 22 33 32
f 34 11 10
f 35 32 33
f 11 1 12
f 11 12 22
f 22 12 33
f 12 23 33
f 34 1 11
f 35 33 23
