# procedural low-poly stone
v 0.038500 -0.000706 -0.011695
v 0.034019 0.015806 -0.012643
v 0.005471 0.025098 -0.013499
v -0.027863 0.026370 -0.013847
v -0.042860 0.009801 -0.013494
v -0.037499 -0.009491 -0.012437
v -0.021903 -0.028429 -0.011593
v 0.007914 -0.026019 -0.013671
v 0.035403 -0.018858 -0.011806
v 0.040987 -0.001033 0.000906
v 0.035890 0.016684 -0.001593
v 0.006298 0.034843 0.001038
v -0.029471 0.025822 0.001614
v -0.040214 0.008122 -0.001851
v -0.048900 -0.010530 -0.001785
v -0.017236 -0.025499 -0.000656
v 0.010845 -0.031602 0.001592
v 0.036617 -0.018458 -0.001938
v 0.031223 -0.001195 0.014171
v 0.025424 0.013847 0.008844
v 0.006119 0.015684 0.013459
v -0.014813 0.014191 0.011167
v -0.032314 0.004962 0.010833
v -0.023670 -0.006490 0.008152
v -0.012371 -0.012717 0.012872
v 0.003290 -0.012117 0.013660
v 0.014799 -0.009282 0.013885
v 0.000000 0.000000 -0.013940
v -0.000521 -0.000198 0.011945
f 1 2 11
f 1 11 10
f 10 11 20
f 10 20 19
f 28 2 1
f 29 19 20
f 2 3 12
f 2 12 11
f 11 12 20
f 12 21 20
f 28 3 2
f 29 20 21
f 3 4 13
f 3 13 12
f 12 13 22
f 12 22 21
f 28 4 3
f 29 21 22
f 4 5 14
f 4 14 13
f 13 14 22
f 14 23 22
f 28 5 4
f 29 22 23
f 5 6 15
f 5 15 14
f 14 15 24
f 14 24 23
f 28 6 5
f 29 23 24
f 6 7 16
f 6 16 15
f 15 16 24
f 16 25 24
f 28 7 6
f 29 24 25
f 7 8 17
f 7 17 16
f 16 17 25
f 17 26 25
f 28 8 7
f 29 25 26
f 8 9 18
f 8 18 17
f 17 18 27
f 17 27 26
f 28 9 8
f 29 26 27
f 9 1 10
f 9 10 18
f 18 10 27
f 10 19 27
f 28 1 9
f 29 27 19
