# procedural low-poly stone
v 0.048737 -0.002528 -0.015682
v 0.046798 0.019562 -0.015095
v 0.032348 0.031206 -0.016718
v -0.000651 0.031776 -0.017690
v -0.021636 0.027926 -0.016582
v -0.039880 0.015573 -0.017814
v -0.054650 0.000375 -0.017143
v -0.048353 -0.014520 -0.015121
v -0.024666 -0.026526 -0.017253
v 0.003107 -0.033718 -0.017369
v 0.026565 -0.032057 -0.017137
v 0.053892 -0.017226 -0.015810
v 0.055908 -0.003424 0.002027
v 0.052768 0.021055 0.000451
v 0.032461 0.032268 0.002787
v -0.003156 0.041618 -0.001381
v -0.025891 0.033991 0.001060
v -0.056666 0.022032 -0.002340
v -0.060196 0.001151 0.001267
v -0.043513 -0.012168 0.000437
v -0.027450 -0.029093 0.002565
v 0.003555 -0.035796 -0.002550
v 0.021628 -0.029747 0.001317
v 0.045065 -0.016018 0.003056
v 0.032512 -0.000968 0.016701
v 0.023789 0.010129 0.014641
v 0.020862 0.019303 0.014057
v -0.001655 0.014114 0.011213
v -0.017643 0.018135 0.010740
v -0.019989 0.007846 0.014073
v -0.044441 -0.000297 0.017160
v -0.031378 -0.011082 0.018287
v -0.026788 -0.025877 0.013784
v -0.002116 -0.029647 0.017047
v 0.011449 -0.016214 0.017417
v 0.043218 -0.011386 0.017160
v 0.000000 0.000000 -0.017380
v -0.000062 -0.000862 0.020519
f 1 2 14
f 1 14 13
f 13 14 25
f 14 26 25
f 37 2 1
f 38 25 26
f 2 3 15
f 2 15 14
f 14 15 27
f 14 27 26
f 37 3 2
f 38 26 27
f 3 4 16
f 3 16 15
f 15 16 27
f 16 28 27
f 37 4 3
f 38 27 28
f 4 5 17
f 4 17 16
f 16 17 29
f 16 29 28
f 37 5 4
f 38 28 29
f 5 6 18
f 5 18 17
f 17 18 29
f 18 30 29
f 37 6 5
f 38 29 30
f 6 7 19
f 6 19 18
f 18 19 31
f 18 31 30
f 37 7 6
f 38 30 31
f 7 8 20
f 7 20 19
f 19 20 31
f 20 32 31
f 37 8 7
f 38 31 32
f 8 9 21
f 8 21 20
f 20 21 32
f 21 33 32
f 37 9 8
f 38 32 33
f 9 10 22
f 9 22 21
f 21 22 33
f 22 34 33
f 37 10 9
f 38 33 34
f 10 11 23
f 10 23 22
f 22 23 34
f 23 35 34
f 37 11 10
f 38 34 35
f 11 12 24
f 11 24 23
f 23 24 35
f 24 36 35
f 37 12 11
f 38 35 36
f 12 1 13
f 12 13 24
f 24 13 36
f 13 25 36
f 37 1 12
f 38 36 25
