# procedural low-poly stone
v 0.037733 0.000002 -0.011735
v 0.024304 0.016942 -0.011004
v 0.006079 0.027679 -0.010405
v -0.020216 0.021965 -0.010212
v -0.029702 0.006156 -0.009982
v -0.031586 -0.009067 -0.011381
v -0.018010 -0.018612 -0.010728
v 0.004119 -0.023778 -0.011999
v 0.027565 -0.017094 -0.011356
v 0.030635 -0.001767 -0.001206
v 0.027169 0.017247 0.002101
v 0.007074 0.028891 -0.001760
v -0.015647 0.018730 0.001450
v -0.032102 0.005457 -0.000644
v -0.034887 -0.010692 0.001817
v -0.022049 -0.022282 0.000443
v 0.007611 -0.029295 -0.000411
v 0.027829 -0.018006 -0.001161
v 0.026445 -0.000632 0.009691
v 0.009823 0.008222 0.010177
v 0.004057 0.014051 0.009458
v -0.007932 0.010293 0.009945
v -0.016667 0.003151 0.006605
v -0.023140 -0.008579 0.009366
v -0.011790 -0.013960 0.008773
v 0.001934 -0.018123 0.007913
v 0.021484 -0.014765 0.011972
v 0.000000 0.000000 -0.012469
v 0.000359 -0.000613 0.010311
f 1 2 11
f 1 11 10
f 10 11 19
f 11 20 19
f 28 2 1
f 29 19 20
f 2 3 12
f 2 12 11
f 11 12 21
f 11 21 20
f 28 3 2
f 29 20 21
f 3 4 13
f 3 13 12
f 12 13 22
f 12 22 21
f 28 4 3
f 29 21 22
f 4 5 14
f 4 14 13
f 13 14 23
f 13 23 22
f 28 5 4
f 29 22 23
f 5 6 15
f 5 15 14
f 14 15 23
f 15 24 23
f 28 6 5
f 29 23 24
f 6 7 16
f 6 16 15
f 15 16 25
f 15 25 24
f 28 7 6
f 29 24 25
f 7 8 17
f 7 17 16
f 16 17 26
f 16 26 25
f 28 8 7
f 29 25 26
f 8 9 18
f 8 18 17
f 17 18 26
f 18 27 26
f 28 9 8
f 29 26 27
f 9 1 10
f 9 10 18
f 18 10 27
f 10 19 27
f 28 1 9
f 29 27 19
