# procedural low-poly stone
v 0.042024 -0.002597 -0.012513
v 0.033668 0.016825 -0.013875
v 0.012152 0.024512 -0.012620
v -0.011080 0.029753 -0.014174
v -0.035778 0.016710 -0.012375
v -0.048191 0.001663 -0.014060
v -0.035424 -0.013701 -0.014413
v -0.008643 -0.022876 -0.013570
v 0.012136 -0.025494 -0.014014
v 0.033469 -0.015671 -0.014928
v 0.049010 -0.004578 -0.000207
v 0.038503 0.017423 -0.000772
v 0.015761 0.027317 0.000226
v -0.013494 0.033158 0.001752
v -0.046138 0.022002 0.002221
v -0.043732 0.000440 0.001142
v -0.033937 -0.012241 0.000026
v -0.010335 -0.030806 -0.001101
v 0.015865 -0.030763 0.001240
v 0.033257 -0.014932 0.000548
v 0.034515 -0.003002 0.015422
v 0.019066 0.010864 0.011661
v 0.008231 0.013750 0.008366
v -0.006428 0.019870 0.010720
v -0.019446 0.008764 0.014414
v -0.036411 0.002755 0.015645
v -0.032392 -0.012066 0.010488
v -0.005900 -0.024624 0.012444
v 0.006729 -0.015564 0.009729
v 0.030799 -0.014609 0.009361
v 0.000000 0.000000 -0.014582
v 0.003090 -0.001237 0.015060
f 1 2 12
f 1 12 11
f 11 12 22
f 11 22 21
f 31 2 1
f 32 21 22
f 2 3 13
f 2 13 12
f 12 13 22
f 13 23 22
f 31 3 2
f 32 22 23
f 3 4 14
f 3 14 13
f 13 14 23
f 14 24 23
f 31 4 3
f 32 23 24
f 4 5 15
f 4 15 14
f 14 15 25
f 14 25 24
f 31 5 4
f 32 24 25
f 5 6 16
f 5 16 15
f 15 16 26
f 15 26 25
f 31 6 5
f 32 25 26
f 6 7 17
f 6 17 16
f 16 17 27
f 16 27 26
f 31 7 6
f 32 26 27
f 7 8 18
f 7 18 17
f 17 18 28
f 17 28 27
f 31 8 7
f 32 27 28
f 8 9 19
f 8 19 18
f 18 19 28
f 19 29 28
f 31 9 8
f 32 28 29
f 9 10 20
f 9 20 19
f 19 20 30
f 19 30 29
f 31 10 9
f 32 29 30
f 10 1 11
f 10 11 20
f 20 11 30
f 11 21 30
f 31 1 10
f 32 30 21
