# procedural low-poly stone
v 0.049507 0.001661 -0.013176
v 0.047636 0.016358 -0.013795
v 0.009999 0.023003 -0.014664
v -0.017234 0.026134 -0.015432
v -0.043563 0.021044 -0.013315
v -0.058304 -0.002594 -0.015480
v -0.033968 -0.015490 -0.014498
v -0.014931 -0.028754 -0.014463
v 0.022722 -0.029656 -0.013910
v 0.043517 -0.019738 -0.015720
v 0.056649 0.004010 -0.000487
v 0.047863 0.016996 0.002189
v 0.014331 0.031229 0.001466
v -0.017786 0.030694 0.001447
v -0.040704 0.018439 0.001543
v -0.056272 -0.003989 0.000341
v -0.046321 -0.020540 -0.000696
v -0.016517 -0.032909 0.002042
v 0.020233 -0.026709 -0.001149
v 0.043530 -0.022410 0.001067
v 0.033311 0.000635 0.014495
v 0.034477 0.011613 0.015775
v 0.004243 0.018197 0.012986
v -0.009787 0.020552 0.014380
v -0.032694 0.016206 0.009241
v -0.026704 -0.000797 0.013892
v -0.031334 -0.015727 0.008921
v -0.011192 -0.023346 0.016418
v 0.020083 -0.021134 0.016026
v 0.021596 -0.010423 0.016063
v 0.000000 0.000000 -0.015671
v 0.000573 0.001135 0.016152
f 1 2 12
f 1 12 11
f 11 12 22
f 11 22 21
f 31 2 1
f 32 21 22
f 2 3 13
f 2 13 12
f 12 13 22
f 13 23 22
f 31 3 2
f 32 22 23
f 3 4 14
f 3 14 13
f 13 14 24
f 13 24 23
f 31 4 3
f 32 23 24
f 4 5 15
f 4 15 14
f 14 15 25
f 14 25 24
f 31 5 4
f 32 24 25
f 5 6 16
f 5 16 15
f 15 16 25
f 16 26 25
f 31 6 5
f 32 25 26
f 6 7 17
f 6 17 16
f 16 17 27
f 16 27 26
f 31 7 6
f 32 26 27
f 7 8 18
f 7 18 17
f 17 18 27
f 18 28 27
f 31 8 7
f 32 27 28
f 8 9 19
f 8 19 18
f 18 19 28
f 19 29 28
f 31 9 8
f 32 28 29
f 9 10 20
f 9 20 19
f 19 20 30
f 19 30 29
f 31 10 9
f 32 29 30
f 10 1 11
f 10 11 20
f 20 11 30
f 11 21 30
f 31 1 10
f 32 30 21
