# procedural low-poly stone
v 0.025844 0.001102 -0.008726
v 0.019061 0.011823 -0.009599
v 0.008973 0.016320 -0.009622
v -0.008156 0.020443 -0.009019
v -0.020463 0.009301 -0.009244
v -0.027836 -0.001663 -0.008463
v -0.019401 -0.013269 -0.008503
v -0.009283 -0.017827 -0.008206
v 0.007595 -0.015690 -0.008609
v 0.020469 -0.009908 -0.009257
v 0.022873 0.001948 0.000851
v 0.023704 0.013211 -0.001143
v 0.008857 0.018887 -0.001131
v -0.010193 0.019921 0.000647
v -0.026549 0.011445 0.001542
v -0.027586 -0.002575 -0.000522
v -0.019695 -0.012582 0.000056
v -0.008365 -0.018587 -0.001194
v 0.008681 -0.022283 -0.000237
v 0.025879 -0.012535 0.001197
v 0.015300 0.001178 0.008972
v 0.010805 0.007006 0.010217
v 0.005111 0.007874 0.010306
v -0.008224 0.016245 0.009371
v -0.018211 0.006597 0.010207
v -0.021870 -0.002492 0.008248
v -0.007576 -0.005848 0.009975
v -0.008349 -0.014732 0.006037
v 0.004927 -0.012002 0.010406
v 0.013107 -0.005886 0.008993
v 0.000000 0.000000 -0.009705
v 0.001563 -0.000377 0.008598
f 1 2 12
f 1 12 11
f 11 12 22
f 11 22 21
f 31 2 1
f 32 21 22
f 2 3 13
f 2 13 12
f 12 13 22
f 13 23 22
f 31 3 2
f 32 22 23
f 3 4 14
f 3 14 13
f 13 14 23
f 14 24 23
f 31 4 3
f 32 23 24
f 4 5 15
f 4 15 14
f 14 15 24
f 15 25 24
f 31 5 4
f 32 24 25
f 5 6 16
f 5 16 15
f 15 16 26
f 15 26 25
f 31 6 5
f 32 25 26
f 6 7 17
f 6 17 16
f 16 17 26
f 17 27 26
f 31 7 6
f 32 26 27
f 7 8 18
f 7 18 17
f 17 18 27
f 18 28 27
f 31 8 7
f 32 27 28
f 8 9 19
f 8 19 18
f 18 19 28
f 19 29 28
f 31 9 8
f 32 28 29
f 9 10 20
f 9 20 19
f 19 20 30
f 19 30 29
f 31 10 9
f 32 29 30
f 10 1 11
f 10 11 20
f 20 11 21
f 20 21 30
f 31 1 10
f 32 30 21
