# MuJoCo soccer goal mesh
o top_left_rail
v 0.0000000 -3.7800000 2.5000000
v 0.0000000 -3.7624264 2.4575736
v 0.0000000 -3.7200000 2.4400000
v 0.0000000 -3.6775736 2.4575736
v 0.0000000 -3.6600000 2.5000000
v 0.0000000 -3.6775736 2.5424264
v 0.0000000 -3.7200000 2.5600000
v 0.0000000 -3.7624264 2.5424264
v 0.8000000 -3.7800000 2.5000000
v 0.8000000 -3.7624264 2.4575736
v 0.8000000 -3.7200000 2.4400000
v 0.8000000 -3.6775736 2.4575736
v 0.8000000 -3.6600000 2.5000000
v 0.8000000 -3.6775736 2.5424264
v 0.8000000 -3.7200000 2.5600000
v 0.8000000 -3.7624264 2.5424264
v 0.0000000 -3.7200000 2.5000000
v 0.8000000 -3.7200000 2.5000000
f 1 2 10 9
f 2 3 11 10
f 3 4 12 11
f 4 5 13 12
f 5 6 14 13
f 6 7 15 14
f 7 8 16 15
f 8 1 9 16
f 17 2 1
f 18 9 10
f 17 3 2
f 18 10 11
f 17 4 3
f 18 11 12
f 17 5 4
f 18 12 13
f 17 6 5
f 18 13 14
f 17 7 6
f 18 14 15
f 17 8 7
f 18 15 16
f 17 1 8
f 18 16 9
