# MuJoCo soccer goal mesh
o front_left_post
v -0.0600000 -3.7200000 0.0000000
v -0.0579555 -3.7355291 0.0000000
v -0.0519615 -3.7500000 0.0000000
v -0.0424264 -3.7624264 0.0000000
v -0.0300000 -3.7719615 0.0000000
v -0.0155291 -3.7779555 0.0000000
v -0.0000000 -3.7800000 0.0000000
v 0.0155291 -3.7779555 0.0000000
v 0.0300000 -3.7719615 0.0000000
v 0.0424264 -3.7624264 0.0000000
v 0.0519615 -3.7500000 0.0000000
v 0.0579555 -3.7355291 0.0000000
v 0.0600000 -3.7200000 0.0000000
v 0.0579555 -3.7044709 0.0000000
v 0.0519615 -3.6900000 0.0000000
v 0.0424264 -3.6775736 0.0000000
v 0.0300000 -3.6680385 0.0000000
v 0.0155291 -3.6620445 0.0000000
v 0.0000000 -3.6600000 0.0000000
v -0.0155291 -3.6620445 0.0000000
v -0.0300000 -3.6680385 0.0000000
v -0.0424264 -3.6775736 0.0000000
v -0.0519615 -3.6900000 0.0000000
v -0.0579555 -3.7044709 0.0000000
v -0.0600000 -3.7200000 2.5000000
v -0.0579555 -3.7355291 2.5000000
v -0.0519615 -3.7500000 2.5000000
v -0.0424264 -3.7624264 2.5000000
v -0.0300000 -3.7719615 2.5000000
v -0.0155291 -3.7779555 2.5000000
v -0.0000000 -3.7800000 2.5000000
v 0.0155291 -3.7779555 2.5000000
v 0.0300000 -3.7719615 2.5000000
v 0.0424264 -3.7624264 2.5000000
v 0.0519615 -3.7500000 2.5000000
v 0.0579555 -3.7355291 2.5000000
v 0.0600000 -3.7200000 2.5000000
v 0.0579555 -3.7044709 2.5000000
v 0.0519615 -3.6900000 2.5000000
v 0.0424264 -3.6775736 2.5000000
v 0.0300000 -3.6680385 2.5000000
v 0.0155291 -3.6620445 2.5000000
v 0.0000000 -3.6600000 2.5000000
v -0.0155291 -3.6620445 2.5000000
v -0.0300000 -3.6680385 2.5000000
v -0.0424264 -3.6775736 2.5000000
v -0.0519615 -3.6900000 2.5000000
v -0.0579555 -3.7044709 2.5000000
v 0.0000000 -3.7200000 0.0000000
v 0.0000000 -3.7200000 2.5000000
f 1 2 26 25
f 2 3 27 26
f 3 4 28 27
f 4 5 29 28
f 5 6 30 29
f 6 7 31 30
f 7 8 32 31
f 8 9 33 32
f 9 10 34 33
f 10 11 35 34
f 11 12 36 35
f 12 13 37 36
f 13 14 38 37
f 14 15 39 38
f 15 16 40 39
f 16 17 41 40
f 17 18 42 41
f 18 19 43 42
f 19 20 44 43
f 20 21 45 44
f 21 22 46 45
f 22 23 47 46
f 23 24 48 47
f 24 1 25 48
f 49 2 1
f 50 25 26
f 49 3 2
f 50 26 27
f 49 4 3
f 50 27 28
f 49 5 4
f 50 28 29
f 49 6 5
f 50 29 30
f 49 7 6
f 50 30 31
f 49 8 7
f 50 31 32
f 49 9 8
f 50 32 33
f 49 10 9
f 50 33 34
f 49 11 10
f 50 34 35
f 49 12 11
f 50 35 36
f 49 13 12
f 50 36 37
f 49 14 13
f 50 37 38
f 49 15 14
f 50 38 39
f 49 16 15
f 50 39 40
f 49 17 16
f 50 40 41
f 49 18 17
f 50 41 42
f 49 19 18
f 50 42 43
f 49 20 19
f 50 43 44
f 49 21 20
f 50 44 45
f 49 22 21
f 50 45 46
f 49 23 22
f 50 46 47
f 49 24 23
f 50 47 48
f 49 1 24
f 50 48 25
o front_right_post
v -0.0600000 3.7200000 0.0000000
v -0.0579555 3.7044709 0.0000000
v -0.0519615 3.6900000 0.0000000
v -0.0424264 3.6775736 0.0000000
v -0.0300000 3.6680385 0.0000000
v -0.0155291 3.6620445 0.0000000
v -0.0000000 3.6600000 0.0000000
v 0.0155291 3.6620445 0.0000000
v 0.0300000 3.6680385 0.0000000
v 0.0424264 3.6775736 0.0000000
v 0.0519615 3.6900000 0.0000000
v 0.0579555 3.7044709 0.0000000
v 0.0600000 3.7200000 0.0000000
v 0.0579555 3.7355291 0.0000000
v 0.0519615 3.7500000 0.0000000
v 0.0424264 3.7624264 0.0000000
v 0.0300000 3.7719615 0.0000000
v 0.0155291 3.7779555 0.0000000
v 0.0000000 3.7800000 0.0000000
v -0.0155291 3.7779555 0.0000000
v -0.0300000 3.7719615 0.0000000
v -0.0424264 3.7624264 0.0000000
v -0.0519615 3.7500000 0.0000000
v -0.0579555 3.7355291 0.0000000
v -0.0600000 3.7200000 2.5000000
v -0.0579555 3.7044709 2.5000000
v -0.0519615 3.6900000 2.5000000
v -0.0424264 3.6775736 2.5000000
v -0.0300000 3.6680385 2.5000000
v -0.0155291 3.6620445 2.5000000
v -0.0000000 3.6600000 2.5000000
v 0.0155291 3.6620445 2.5000000
v 0.0300000 3.6680385 2.5000000
v 0.0424264 3.6775736 2.5000000
v 0.0519615 3.6900000 2.5000000
v 0.0579555 3.7044709 2.5000000
v 0.0600000 3.7200000 2.5000000
v 0.0579555 3.7355291 2.5000000
v 0.0519615 3.7500000 2.5000000
v 0.0424264 3.7624264 2.5000000
v 0.0300000 3.7719615 2.5000000
v 0.0155291 3.7779555 2.5000000
v 0.0000000 3.7800000 2.5000000
v -0.0155291 3.7779555 2.5000000
v -0.0300000 3.7719615 2.5000000
v -0.0424264 3.7624264 2.5000000
v -0.0519615 3.7500000 2.5000000
v -0.0579555 3.7355291 2.5000000
v 0.0000000 3.7200000 0.0000000
v 0.0000000 3.7200000 2.5000000
f 51 52 76 75
f 52 53 77 76
f 53 54 78 77
f 54 55 79 78
f 55 56 80 79
f 56 57 81 80
f 57 58 82 81
f 58 59 83 82
f 59 60 84 83
f 60 61 85 84
f 61 62 86 85
f 62 63 87 86
f 63 64 88 87
f 64 65 89 88
f 65 66 90 89
f 66 67 91 90
f 67 68 92 91
f 68 69 93 92
f 69 70 94 93
f 70 71 95 94
f 71 72 96 95
f 72 73 97 96
f 73 74 98 97
f 74 51 75 98
f 99 52 51
f 100 75 76
f 99 53 52
f 100 76 77
f 99 54 53
f 100 77 78
f 99 55 54
f 100 78 79
f 99 56 55
f 100 79 80
f 99 57 56
f 100 80 81
f 99 58 57
f 100 81 82
f 99 59 58
f 100 82 83
f 99 60 59
f 100 83 84
f 99 61 60
f 100 84 85
f 99 62 61
f 100 85 86
f 99 63 62
f 100 86 87
f 99 64 63
f 100 87 88
f 99 65 64
f 100 88 89
f 99 66 65
f 100 89 90
f 99 67 66
f 100 90 91
f 99 68 67
f 100 91 92
f 99 69 68
f 100 92 93
f 99 70 69
f 100 93 94
f 99 71 70
f 100 94 95
f 99 72 71
f 100 95 96
f 99 73 72
f 100 96 97
f 99 74 73
f 100 97 98
f 99 51 74
f 100 98 75
o front_crossbar
v 0.0600000 -3.7200000 2.5000000
v 0.0579555 -3.7200000 2.4844709
v 0.0519615 -3.7200000 2.4700000
v 0.0424264 -3.7200000 2.4575736
v 0.0300000 -3.7200000 2.4480385
v 0.0155291 -3.7200000 2.4420445
v 0.0000000 -3.7200000 2.4400000
v -0.0155291 -3.7200000 2.4420445
v -0.0300000 -3.7200000 2.4480385
v -0.0424264 -3.7200000 2.4575736
v -0.0519615 -3.7200000 2.4700000
v -0.0579555 -3.7200000 2.4844709
v -0.0600000 -3.7200000 2.5000000
v -0.0579555 -3.7200000 2.5155291
v -0.0519615 -3.7200000 2.5300000
v -0.0424264 -3.7200000 2.5424264
v -0.0300000 -3.7200000 2.5519615
v -0.0155291 -3.7200000 2.5579555
v -0.0000000 -3.7200000 2.5600000
v 0.0155291 -3.7200000 2.5579555
v 0.0300000 -3.7200000 2.5519615
v 0.0424264 -3.7200000 2.5424264
v 0.0519615 -3.7200000 2.5300000
v 0.0579555 -3.7200000 2.5155291
v 0.0600000 3.7200000 2.5000000
v 0.0579555 3.7200000 2.4844709
v 0.0519615 3.7200000 2.4700000
v 0.0424264 3.7200000 2.4575736
v 0.0300000 3.7200000 2.4480385
v 0.0155291 3.7200000 2.4420445
v 0.0000000 3.7200000 2.4400000
v -0.0155291 3.7200000 2.4420445
v -0.0300000 3.7200000 2.4480385
v -0.0424264 3.7200000 2.4575736
v -0.0519615 3.7200000 2.4700000
v -0.0579555 3.7200000 2.4844709
v -0.0600000 3.7200000 2.5000000
v -0.0579555 3.7200000 2.5155291
v -0.0519615 3.7200000 2.5300000
v -0.0424264 3.7200000 2.5424264
v -0.0300000 3.7200000 2.5519615
v -0.0155291 3.7200000 2.5579555
v -0.0000000 3.7200000 2.5600000
v 0.0155291 3.7200000 2.5579555
v 0.0300000 3.7200000 2.5519615
v 0.0424264 3.7200000 2.5424264
v 0.0519615 3.7200000 2.5300000
v 0.0579555 3.7200000 2.5155291
v 0.0000000 -3.7200000 2.5000000
v 0.0000000 3.7200000 2.5000000
f 101 102 126 125
f 102 103 127 126
f 103 104 128 127
f 104 105 129 128
f 105 106 130 129
f 106 107 131 130
f 107 108 132 131
f 108 109 133 132
f 109 110 134 133
f 110 111 135 134
f 111 112 136 135
f 112 113 137 136
f 113 114 138 137
f 114 115 139 138
f 115 116 140 139
f 116 117 141 140
f 117 118 142 141
f 118 119 143 142
f 119 120 144 143
f 120 121 145 144
f 121 122 146 145
f 122 123 147 146
f 123 124 148 147
f 124 101 125 148
f 149 102 101
f 150 125 126
f 149 103 102
f 150 126 127
f 149 104 103
f 150 127 128
f 149 105 104
f 150 128 129
f 149 106 105
f 150 129 130
f 149 107 106
f 150 130 131
f 149 108 107
f 150 131 132
f 149 109 108
f 150 132 133
f 149 110 109
f 150 133 134
f 149 111 110
f 150 134 135
f 149 112 111
f 150 135 136
f 149 113 112
f 150 136 137
f 149 114 113
f 150 137 138
f 149 115 114
f 150 138 139
f 149 116 115
f 150 139 140
f 149 117 116
f 150 140 141
f 149 118 117
f 150 141 142
f 149 119 118
f 150 142 143
f 149 120 119
f 150 143 144
f 149 121 120
f 150 144 145
f 149 122 121
f 150 145 146
f 149 123 122
f 150 146 147
f 149 124 123
f 150 147 148
f 149 101 124
f 150 148 125
o top_left_rail
v 0.0000000 -3.7800000 2.5000000
v 0.0000000 -3.7779555 2.4844709
v 0.0000000 -3.7719615 2.4700000
v 0.0000000 -3.7624264 2.4575736
v 0.0000000 -3.7500000 2.4480385
v 0.0000000 -3.7355291 2.4420445
v 0.0000000 -3.7200000 2.4400000
v 0.0000000 -3.7044709 2.4420445
v 0.0000000 -3.6900000 2.4480385
v 0.0000000 -3.6775736 2.4575736
v 0.0000000 -3.6680385 2.4700000
v 0.0000000 -3.6620445 2.4844709
v 0.0000000 -3.6600000 2.5000000
v 0.0000000 -3.6620445 2.5155291
v 0.0000000 -3.6680385 2.5300000
v 0.0000000 -3.6775736 2.5424264
v 0.0000000 -3.6900000 2.5519615
v 0.0000000 -3.7044709 2.5579555
v 0.0000000 -3.7200000 2.5600000
v 0.0000000 -3.7355291 2.5579555
v 0.0000000 -3.7500000 2.5519615
v 0.0000000 -3.7624264 2.5424264
v 0.0000000 -3.7719615 2.5300000
v 0.0000000 -3.7779555 2.5155291
v 0.8000000 -3.7800000 2.5000000
v 0.8000000 -3.7779555 2.4844709
v 0.8000000 -3.7719615 2.4700000
v 0.8000000 -3.7624264 2.4575736
v 0.8000000 -3.7500000 2.4480385
v 0.8000000 -3.7355291 2.4420445
v 0.8000000 -3.7200000 2.4400000
v 0.8000000 -3.7044709 2.4420445
v 0.8000000 -3.6900000 2.4480385
v 0.8000000 -3.6775736 2.4575736
v 0.8000000 -3.6680385 2.4700000
v 0.8000000 -3.6620445 2.4844709
v 0.8000000 -3.6600000 2.5000000
v 0.8000000 -3.6620445 2.5155291
v 0.8000000 -3.6680385 2.5300000
v 0.8000000 -3.6775736 2.5424264
v 0.8000000 -3.6900000 2.5519615
v 0.8000000 -3.7044709 2.5579555
v 0.8000000 -3.7200000 2.5600000
v 0.8000000 -3.7355291 2.5579555
v 0.8000000 -3.7500000 2.5519615
v 0.8000000 -3.7624264 2.5424264
v 0.8000000 -3.7719615 2.5300000
v 0.8000000 -3.7779555 2.5155291
v 0.0000000 -3.7200000 2.5000000
v 0.8000000 -3.7200000 2.5000000
f 151 152 176 175
f 152 153 177 176
f 153 154 178 177
f 154 155 179 178
f 155 156 180 179
f 156 157 181 180
f 157 158 182 181
f 158 159 183 182
f 159 160 184 183
f 160 161 185 184
f 161 162 186 185
f 162 163 187 186
f 163 164 188 187
f 164 165 189 188
f 165 166 190 189
f 166 167 191 190
f 167 168 192 191
f 168 169 193 192
f 169 170 194 193
f 170 171 195 194
f 171 172 196 195
f 172 173 197 196
f 173 174 198 197
f 174 151 175 198
f 199 152 151
f 200 175 176
f 199 153 152
f 200 176 177
f 199 154 153
f 200 177 178
f 199 155 154
f 200 178 179
f 199 156 155
f 200 179 180
f 199 157 156
f 200 180 181
f 199 158 157
f 200 181 182
f 199 159 158
f 200 182 183
f 199 160 159
f 200 183 184
f 199 161 160
f 200 184 185
f 199 162 161
f 200 185 186
f 199 163 162
f 200 186 187
f 199 164 163
f 200 187 188
f 199 165 164
f 200 188 189
f 199 166 165
f 200 189 190
f 199 167 166
f 200 190 191
f 199 168 167
f 200 191 192
f 199 169 168
f 200 192 193
f 199 170 169
f 200 193 194
f 199 171 170
f 200 194 195
f 199 172 171
f 200 195 196
f 199 173 172
f 200 196 197
f 199 174 173
f 200 197 198
f 199 151 174
f 200 198 175
o top_right_rail
v 0.0000000 3.6600000 2.5000000
v 0.0000000 3.6620445 2.4844709
v 0.0000000 3.6680385 2.4700000
v 0.0000000 3.6775736 2.4575736
v 0.0000000 3.6900000 2.4480385
v 0.0000000 3.7044709 2.4420445
v 0.0000000 3.7200000 2.4400000
v 0.0000000 3.7355291 2.4420445
v 0.0000000 3.7500000 2.4480385
v 0.0000000 3.7624264 2.4575736
v 0.0000000 3.7719615 2.4700000
v 0.0000000 3.7779555 2.4844709
v 0.0000000 3.7800000 2.5000000
v 0.0000000 3.7779555 2.5155291
v 0.0000000 3.7719615 2.5300000
v 0.0000000 3.7624264 2.5424264
v 0.0000000 3.7500000 2.5519615
v 0.0000000 3.7355291 2.5579555
v 0.0000000 3.7200000 2.5600000
v 0.0000000 3.7044709 2.5579555
v 0.0000000 3.6900000 2.5519615
v 0.0000000 3.6775736 2.5424264
v 0.0000000 3.6680385 2.5300000
v 0.0000000 3.6620445 2.5155291
v 0.8000000 3.6600000 2.5000000
v 0.8000000 3.6620445 2.4844709
v 0.8000000 3.6680385 2.4700000
v 0.8000000 3.6775736 2.4575736
v 0.8000000 3.6900000 2.4480385
v 0.8000000 3.7044709 2.4420445
v 0.8000000 3.7200000 2.4400000
v 0.8000000 3.7355291 2.4420445
v 0.8000000 3.7500000 2.4480385
v 0.8000000 3.7624264 2.4575736
v 0.8000000 3.7719615 2.4700000
v 0.8000000 3.7779555 2.4844709
v 0.8000000 3.7800000 2.5000000
v 0.8000000 3.7779555 2.5155291
v 0.8000000 3.7719615 2.5300000
v 0.8000000 3.7624264 2.5424264
v 0.8000000 3.7500000 2.5519615
v 0.8000000 3.7355291 2.5579555
v 0.8000000 3.7200000 2.5600000
v 0.8000000 3.7044709 2.5579555
v 0.8000000 3.6900000 2.5519615
v 0.8000000 3.6775736 2.5424264
v 0.8000000 3.6680385 2.5300000
v 0.8000000 3.6620445 2.5155291
v 0.0000000 3.7200000 2.5000000
v 0.8000000 3.7200000 2.5000000
f 201 202 226 225
f 202 203 227 226
f 203 204 228 227
f 204 205 229 228
f 205 206 230 229
f 206 207 231 230
f 207 208 232 231
f 208 209 233 232
f 209 210 234 233
f 210 211 235 234
f 211 212 236 235
f 212 213 237 236
f 213 214 238 237
f 214 215 239 238
f 215 216 240 239
f 216 217 241 240
f 217 218 242 241
f 218 219 243 242
f 219 220 244 243
f 220 221 245 244
f 221 222 246 245
f 222 223 247 246
f 223 224 248 247
f 224 201 225 248
f 249 202 201
f 250 225 226
f 249 203 202
f 250 226 227
f 249 204 203
f 250 227 228
f 249 205 204
f 250 228 229
f 249 206 205
f 250 229 230
f 249 207 206
f 250 230 231
f 249 208 207
f 250 231 232
f 249 209 208
f 250 232 233
f 249 210 209
f 250 233 234
f 249 211 210
f 250 234 235
f 249 212 211
f 250 235 236
f 249 213 212
f 250 236 237
f 249 214 213
f 250 237 238
f 249 215 214
f 250 238 239
f 249 216 215
f 250 239 240
f 249 217 216
f 250 240 241
f 249 218 217
f 250 241 242
f 249 219 218
f 250 242 243
f 249 220 219
f 250 243 244
f 249 221 220
f 250 244 245
f 249 222 221
f 250 245 246
f 249 223 222
f 250 246 247
f 249 224 223
f 250 247 248
f 249 201 224
f 250 248 225
o back_top_bar
v 0.8600000 -3.7200000 2.5000000
v 0.8579555 -3.7200000 2.4844709
v 0.8519615 -3.7200000 2.4700000
v 0.8424264 -3.7200000 2.4575736
v 0.8300000 -3.7200000 2.4480385
v 0.8155291 -3.7200000 2.4420445
v 0.8000000 -3.7200000 2.4400000
v 0.7844709 -3.7200000 2.4420445
v 0.7700000 -3.7200000 2.4480385
v 0.7575736 -3.7200000 2.4575736
v 0.7480385 -3.7200000 2.4700000
v 0.7420445 -3.7200000 2.4844709
v 0.7400000 -3.7200000 2.5000000
v 0.7420445 -3.7200000 2.5155291
v 0.7480385 -3.7200000 2.5300000
v 0.7575736 -3.7200000 2.5424264
v 0.7700000 -3.7200000 2.5519615
v 0.7844709 -3.7200000 2.5579555
v 0.8000000 -3.7200000 2.5600000
v 0.8155291 -3.7200000 2.5579555
v 0.8300000 -3.7200000 2.5519615
v 0.8424264 -3.7200000 2.5424264
v 0.8519615 -3.7200000 2.5300000
v 0.8579555 -3.7200000 2.5155291
v 0.8600000 3.7200000 2.5000000
v 0.8579555 3.7200000 2.4844709
v 0.8519615 3.7200000 2.4700000
v 0.8424264 3.7200000 2.4575736
v 0.8300000 3.7200000 2.4480385
v 0.8155291 3.7200000 2.4420445
v 0.8000000 3.7200000 2.4400000
v 0.7844709 3.7200000 2.4420445
v 0.7700000 3.7200000 2.4480385
v 0.7575736 3.7200000 2.4575736
v 0.7480385 3.7200000 2.4700000
v 0.7420445 3.7200000 2.4844709
v 0.7400000 3.7200000 2.5000000
v 0.7420445 3.7200000 2.5155291
v 0.7480385 3.7200000 2.5300000
v 0.7575736 3.7200000 2.5424264
v 0.7700000 3.7200000 2.5519615
v 0.7844709 3.7200000 2.5579555
v 0.8000000 3.7200000 2.5600000
v 0.8155291 3.7200000 2.5579555
v 0.8300000 3.7200000 2.5519615
v 0.8424264 3.7200000 2.5424264
v 0.8519615 3.7200000 2.5300000
v 0.8579555 3.7200000 2.5155291
v 0.8000000 -3.7200000 2.5000000
v 0.8000000 3.7200000 2.5000000
f 251 252 276 275
f 252 253 277 276
f 253 254 278 277
f 254 255 279 278
f 255 256 280 279
f 256 257 281 280
f 257 258 282 281
f 258 259 283 282
f 259 260 284 283
f 260 261 285 284
f 261 262 286 285
f 262 263 287 286
f 263 264 288 287
f 264 265 289 288
f 265 266 290 289
f 266 267 291 290
f 267 268 292 291
f 268 269 293 292
f 269 270 294 293
f 270 271 295 294
f 271 272 296 295
f 272 273 297 296
f 273 274 298 297
f 274 251 275 298
f 299 252 251
f 300 275 276
f 299 253 252
f 300 276 277
f 299 254 253
f 300 277 278
f 299 255 254
f 300 278 279
f 299 256 255
f 300 279 280
f 299 257 256
f 300 280 281
f 299 258 257
f 300 281 282
f 299 259 258
f 300 282 283
f 299 260 259
f 300 283 284
f 299 261 260
f 300 284 285
f 299 262 261
f 300 285 286
f 299 263 262
f 300 286 287
f 299 264 263
f 300 287 288
f 299 265 264
f 300 288 289
f 299 266 265
f 300 289 290
f 299 267 266
f 300 290 291
f 299 268 267
f 300 291 292
f 299 269 268
f 300 292 293
f 299 270 269
f 300 293 294
f 299 271 270
f 300 294 295
f 299 272 271
f 300 295 296
f 299 273 272
f 300 296 297
f 299 274 273
f 300 297 298
f 299 251 274
f 300 298 275
o left_diagonal
v 0.8000000 -3.7800000 2.5000000
v 0.7860649 -3.7779555 2.4931467
v 0.7730795 -3.7719615 2.4867604
v 0.7619287 -3.7624264 2.4812764
v 0.7533723 -3.7500000 2.4770684
v 0.7479936 -3.7355291 2.4744231
v 0.7461590 -3.7200000 2.4735208
v 0.7479936 -3.7044709 2.4744231
v 0.7533723 -3.6900000 2.4770684
v 0.7619287 -3.6775736 2.4812764
v 0.7730795 -3.6680385 2.4867604
v 0.7860649 -3.6620445 2.4931467
v 0.8000000 -3.6600000 2.5000000
v 0.8139351 -3.6620445 2.5068533
v 0.8269205 -3.6680385 2.5132396
v 0.8380713 -3.6775736 2.5187236
v 0.8466277 -3.6900000 2.5229316
v 0.8520064 -3.7044709 2.5255769
v 0.8538410 -3.7200000 2.5264792
v 0.8520064 -3.7355291 2.5255769
v 0.8466277 -3.7500000 2.5229316
v 0.8380713 -3.7624264 2.5187236
v 0.8269205 -3.7719615 2.5132396
v 0.8139351 -3.7779555 2.5068533
v 2.0000000 -3.7800000 0.0600000
v 1.9860649 -3.7779555 0.0531467
v 1.9730795 -3.7719615 0.0467604
v 1.9619287 -3.7624264 0.0412764
v 1.9533723 -3.7500000 0.0370684
v 1.9479936 -3.7355291 0.0344231
v 1.9461590 -3.7200000 0.0335208
v 1.9479936 -3.7044709 0.0344231
v 1.9533723 -3.6900000 0.0370684
v 1.9619287 -3.6775736 0.0412764
v 1.9730795 -3.6680385 0.0467604
v 1.9860649 -3.6620445 0.0531467
v 2.0000000 -3.6600000 0.0600000
v 2.0139351 -3.6620445 0.0668533
v 2.0269205 -3.6680385 0.0732396
v 2.0380713 -3.6775736 0.0787236
v 2.0466277 -3.6900000 0.0829316
v 2.0520064 -3.7044709 0.0855769
v 2.0538410 -3.7200000 0.0864792
v 2.0520064 -3.7355291 0.0855769
v 2.0466277 -3.7500000 0.0829316
v 2.0380713 -3.7624264 0.0787236
v 2.0269205 -3.7719615 0.0732396
v 2.0139351 -3.7779555 0.0668533
v 0.8000000 -3.7200000 2.5000000
v 2.0000000 -3.7200000 0.0600000
f 301 302 326 325
f 302 303 327 326
f 303 304 328 327
f 304 305 329 328
f 305 306 330 329
f 306 307 331 330
f 307 308 332 331
f 308 309 333 332
f 309 310 334 333
f 310 311 335 334
f 311 312 336 335
f 312 313 337 336
f 313 314 338 337
f 314 315 339 338
f 315 316 340 339
f 316 317 341 340
f 317 318 342 341
f 318 319 343 342
f 319 320 344 343
f 320 321 345 344
f 321 322 346 345
f 322 323 347 346
f 323 324 348 347
f 324 301 325 348
f 349 302 301
f 350 325 326
f 349 303 302
f 350 326 327
f 349 304 303
f 350 327 328
f 349 305 304
f 350 328 329
f 349 306 305
f 350 329 330
f 349 307 306
f 350 330 331
f 349 308 307
f 350 331 332
f 349 309 308
f 350 332 333
f 349 310 309
f 350 333 334
f 349 311 310
f 350 334 335
f 349 312 311
f 350 335 336
f 349 313 312
f 350 336 337
f 349 314 313
f 350 337 338
f 349 315 314
f 350 338 339
f 349 316 315
f 350 339 340
f 349 317 316
f 350 340 341
f 349 318 317
f 350 341 342
f 349 319 318
f 350 342 343
f 349 320 319
f 350 343 344
f 349 321 320
f 350 344 345
f 349 322 321
f 350 345 346
f 349 323 322
f 350 346 347
f 349 324 323
f 350 347 348
f 349 301 324
f 350 348 325
o right_diagonal
v 0.8000000 3.6600000 2.5000000
v 0.7860649 3.6620445 2.4931467
v 0.7730795 3.6680385 2.4867604
v 0.7619287 3.6775736 2.4812764
v 0.7533723 3.6900000 2.4770684
v 0.7479936 3.7044709 2.4744231
v 0.7461590 3.7200000 2.4735208
v 0.7479936 3.7355291 2.4744231
v 0.7533723 3.7500000 2.4770684
v 0.7619287 3.7624264 2.4812764
v 0.7730795 3.7719615 2.4867604
v 0.7860649 3.7779555 2.4931467
v 0.8000000 3.7800000 2.5000000
v 0.8139351 3.7779555 2.5068533
v 0.8269205 3.7719615 2.5132396
v 0.8380713 3.7624264 2.5187236
v 0.8466277 3.7500000 2.5229316
v 0.8520064 3.7355291 2.5255769
v 0.8538410 3.7200000 2.5264792
v 0.8520064 3.7044709 2.5255769
v 0.8466277 3.6900000 2.5229316
v 0.8380713 3.6775736 2.5187236
v 0.8269205 3.6680385 2.5132396
v 0.8139351 3.6620445 2.5068533
v 2.0000000 3.6600000 0.0600000
v 1.9860649 3.6620445 0.0531467
v 1.9730795 3.6680385 0.0467604
v 1.9619287 3.6775736 0.0412764
v 1.9533723 3.6900000 0.0370684
v 1.9479936 3.7044709 0.0344231
v 1.9461590 3.7200000 0.0335208
v 1.9479936 3.7355291 0.0344231
v 1.9533723 3.7500000 0.0370684
v 1.9619287 3.7624264 0.0412764
v 1.9730795 3.7719615 0.0467604
v 1.9860649 3.7779555 0.0531467
v 2.0000000 3.7800000 0.0600000
v 2.0139351 3.7779555 0.0668533
v 2.0269205 3.7719615 0.0732396
v 2.0380713 3.7624264 0.0787236
v 2.0466277 3.7500000 0.0829316
v 2.0520064 3.7355291 0.0855769
v 2.0538410 3.7200000 0.0864792
v 2.0520064 3.7044709 0.0855769
v 2.0466277 3.6900000 0.0829316
v 2.0380713 3.6775736 0.0787236
v 2.0269205 3.6680385 0.0732396
v 2.0139351 3.6620445 0.0668533
v 0.8000000 3.7200000 2.5000000
v 2.0000000 3.7200000 0.0600000
f 351 352 376 375
f 352 353 377 376
f 353 354 378 377
f 354 355 379 378
f 355 356 380 379
f 356 357 381 380
f 357 358 382 381
f 358 359 383 382
f 359 360 384 383
f 360 361 385 384
f 361 362 386 385
f 362 363 387 386
f 363 364 388 387
f 364 365 389 388
f 365 366 390 389
f 366 367 391 390
f 367 368 392 391
f 368 369 393 392
f 369 370 394 393
f 370 371 395 394
f 371 372 396 395
f 372 373 397 396
f 373 374 398 397
f 374 351 375 398
f 399 352 351
f 400 375 376
f 399 353 352
f 400 376 377
f 399 354 353
f 400 377 378
f 399 355 354
f 400 378 379
f 399 356 355
f 400 379 380
f 399 357 356
f 400 380 381
f 399 358 357
f 400 381 382
f 399 359 358
f 400 382 383
f 399 360 359
f 400 383 384
f 399 361 360
f 400 384 385
f 399 362 361
f 400 385 386
f 399 363 362
f 400 386 387
f 399 364 363
f 400 387 388
f 399 365 364
f 400 388 389
f 399 366 365
f 400 389 390
f 399 367 366
f 400 390 391
f 399 368 367
f 400 391 392
f 399 369 368
f 400 392 393
f 399 370 369
f 400 393 394
f 399 371 370
f 400 394 395
f 399 372 371
f 400 395 396
f 399 373 372
f 400 396 397
f 399 374 373
f 400 397 398
f 399 351 374
f 400 398 375
o back_base_bar
v 2.0600000 -3.7200000 0.0600000
v 2.0579555 -3.7200000 0.0444709
v 2.0519615 -3.7200000 0.0300000
v 2.0424264 -3.7200000 0.0175736
v 2.0300000 -3.7200000 0.0080385
v 2.0155291 -3.7200000 0.0020445
v 2.0000000 -3.7200000 0.0000000
v 1.9844709 -3.7200000 0.0020445
v 1.9700000 -3.7200000 0.0080385
v 1.9575736 -3.7200000 0.0175736
v 1.9480385 -3.7200000 0.0300000
v 1.9420445 -3.7200000 0.0444709
v 1.9400000 -3.7200000 0.0600000
v 1.9420445 -3.7200000 0.0755291
v 1.9480385 -3.7200000 0.0900000
v 1.9575736 -3.7200000 0.1024264
v 1.9700000 -3.7200000 0.1119615
v 1.9844709 -3.7200000 0.1179555
v 2.0000000 -3.7200000 0.1200000
v 2.0155291 -3.7200000 0.1179555
v 2.0300000 -3.7200000 0.1119615
v 2.0424264 -3.7200000 0.1024264
v 2.0519615 -3.7200000 0.0900000
v 2.0579555 -3.7200000 0.0755291
v 2.0600000 3.7200000 0.0600000
v 2.0579555 3.7200000 0.0444709
v 2.0519615 3.7200000 0.0300000
v 2.0424264 3.7200000 0.0175736
v 2.0300000 3.7200000 0.0080385
v 2.0155291 3.7200000 0.0020445
v 2.0000000 3.7200000 0.0000000
v 1.9844709 3.7200000 0.0020445
v 1.9700000 3.7200000 0.0080385
v 1.9575736 3.7200000 0.0175736
v 1.9480385 3.7200000 0.0300000
v 1.9420445 3.7200000 0.0444709
v 1.9400000 3.7200000 0.0600000
v 1.9420445 3.7200000 0.0755291
v 1.9480385 3.7200000 0.0900000
v 1.9575736 3.7200000 0.1024264
v 1.9700000 3.7200000 0.1119615
v 1.9844709 3.7200000 0.1179555
v 2.0000000 3.7200000 0.1200000
v 2.0155291 3.7200000 0.1179555
v 2.0300000 3.7200000 0.1119615
v 2.0424264 3.7200000 0.1024264
v 2.0519615 3.7200000 0.0900000
v 2.0579555 3.7200000 0.0755291
v 2.0000000 -3.7200000 0.0600000
v 2.0000000 3.7200000 0.0600000
f 401 402 426 425
f 402 403 427 426
f 403 404 428 427
f 404 405 429 428
f 405 406 430 429
f 406 407 431 430
f 407 408 432 431
f 408 409 433 432
f 409 410 434 433
f 410 411 435 434
f 411 412 436 435
f 412 413 437 436
f 413 414 438 437
f 414 415 439 438
f 415 416 440 439
f 416 417 441 440
f 417 418 442 441
f 418 419 443 442
f 419 420 444 443
f 420 421 445 444
f 421 422 446 445
f 422 423 447 446
f 423 424 448 447
f 424 401 425 448
f 449 402 401
f 450 425 426
f 449 403 402
f 450 426 427
f 449 404 403
f 450 427 428
f 449 405 404
f 450 428 429
f 449 406 405
f 450 429 430
f 449 407 406
f 450 430 431
f 449 408 407
f 450 431 432
f 449 409 408
f 450 432 433
f 449 410 409
f 450 433 434
f 449 411 410
f 450 434 435
f 449 412 411
f 450 435 436
f 449 413 412
f 450 436 437
f 449 414 413
f 450 437 438
f 449 415 414
f 450 438 439
f 449 416 415
f 450 439 440
f 449 417 416
f 450 440 441
f 449 418 417
f 450 441 442
f 449 419 418
f 450 442 443
f 449 420 419
f 450 443 444
f 449 421 420
f 450 444 445
f 449 422 421
f 450 445 446
f 449 423 422
f 450 446 447
f 449 424 423
f 450 447 448
f 449 401 424
f 450 448 425
o left_base_rail
v 0.0000000 -3.7800000 0.0600000
v 0.0000000 -3.7779555 0.0444709
v 0.0000000 -3.7719615 0.0300000
v 0.0000000 -3.7624264 0.0175736
v 0.0000000 -3.7500000 0.0080385
v 0.0000000 -3.7355291 0.0020445
v 0.0000000 -3.7200000 0.0000000
v 0.0000000 -3.7044709 0.0020445
v 0.0000000 -3.6900000 0.0080385
v 0.0000000 -3.6775736 0.0175736
v 0.0000000 -3.6680385 0.0300000
v 0.0000000 -3.6620445 0.0444709
v 0.0000000 -3.6600000 0.0600000
v 0.0000000 -3.6620445 0.0755291
v 0.0000000 -3.6680385 0.0900000
v 0.0000000 -3.6775736 0.1024264
v 0.0000000 -3.6900000 0.1119615
v 0.0000000 -3.7044709 0.1179555
v 0.0000000 -3.7200000 0.1200000
v 0.0000000 -3.7355291 0.1179555
v 0.0000000 -3.7500000 0.1119615
v 0.0000000 -3.7624264 0.1024264
v 0.0000000 -3.7719615 0.0900000
v 0.0000000 -3.7779555 0.0755291
v 2.0000000 -3.7800000 0.0600000
v 2.0000000 -3.7779555 0.0444709
v 2.0000000 -3.7719615 0.0300000
v 2.0000000 -3.7624264 0.0175736
v 2.0000000 -3.7500000 0.0080385
v 2.0000000 -3.7355291 0.0020445
v 2.0000000 -3.7200000 0.0000000
v 2.0000000 -3.7044709 0.0020445
v 2.0000000 -3.6900000 0.0080385
v 2.0000000 -3.6775736 0.0175736
v 2.0000000 -3.6680385 0.0300000
v 2.0000000 -3.6620445 0.0444709
v 2.0000000 -3.6600000 0.0600000
v 2.0000000 -3.6620445 0.0755291
v 2.0000000 -3.6680385 0.0900000
v 2.0000000 -3.6775736 0.1024264
v 2.0000000 -3.6900000 0.1119615
v 2.0000000 -3.7044709 0.1179555
v 2.0000000 -3.7200000 0.1200000
v 2.0000000 -3.7355291 0.1179555
v 2.0000000 -3.7500000 0.1119615
v 2.0000000 -3.7624264 0.1024264
v 2.0000000 -3.7719615 0.0900000
v 2.0000000 -3.7779555 0.0755291
v 0.0000000 -3.7200000 0.0600000
v 2.0000000 -3.7200000 0.0600000
f 451 452 476 475
f 452 453 477 476
f 453 454 478 477
f 454 455 479 478
f 455 456 480 479
f 456 457 481 480
f 457 458 482 481
f 458 459 483 482
f 459 460 484 483
f 460 461 485 484
f 461 462 486 485
f 462 463 487 486
f 463 464 488 487
f 464 465 489 488
f 465 466 490 489
f 466 467 491 490
f 467 468 492 491
f 468 469 493 492
f 469 470 494 493
f 470 471 495 494
f 471 472 496 495
f 472 473 497 496
f 473 474 498 497
f 474 451 475 498
f 499 452 451
f 500 475 476
f 499 453 452
f 500 476 477
f 499 454 453
f 500 477 478
f 499 455 454
f 500 478 479
f 499 456 455
f 500 479 480
f 499 457 456
f 500 480 481
f 499 458 457
f 500 481 482
f 499 459 458
f 500 482 483
f 499 460 459
f 500 483 484
f 499 461 460
f 500 484 485
f 499 462 461
f 500 485 486
f 499 463 462
f 500 486 487
f 499 464 463
f 500 487 488
f 499 465 464
f 500 488 489
f 499 466 465
f 500 489 490
f 499 467 466
f 500 490 491
f 499 468 467
f 500 491 492
f 499 469 468
f 500 492 493
f 499 470 469
f 500 493 494
f 499 471 470
f 500 494 495
f 499 472 471
f 500 495 496
f 499 473 472
f 500 496 497
f 499 474 473
f 500 497 498
f 499 451 474
f 500 498 475
o right_base_rail
v 0.0000000 3.6600000 0.0600000
v 0.0000000 3.6620445 0.0444709
v 0.0000000 3.6680385 0.0300000
v 0.0000000 3.6775736 0.0175736
v 0.0000000 3.6900000 0.0080385
v 0.0000000 3.7044709 0.0020445
v 0.0000000 3.7200000 0.0000000
v 0.0000000 3.7355291 0.0020445
v 0.0000000 3.7500000 0.0080385
v 0.0000000 3.7624264 0.0175736
v 0.0000000 3.7719615 0.0300000
v 0.0000000 3.7779555 0.0444709
v 0.0000000 3.7800000 0.0600000
v 0.0000000 3.7779555 0.0755291
v 0.0000000 3.7719615 0.0900000
v 0.0000000 3.7624264 0.1024264
v 0.0000000 3.7500000 0.1119615
v 0.0000000 3.7355291 0.1179555
v 0.0000000 3.7200000 0.1200000
v 0.0000000 3.7044709 0.1179555
v 0.0000000 3.6900000 0.1119615
v 0.0000000 3.6775736 0.1024264
v 0.0000000 3.6680385 0.0900000
v 0.0000000 3.6620445 0.0755291
v 2.0000000 3.6600000 0.0600000
v 2.0000000 3.6620445 0.0444709
v 2.0000000 3.6680385 0.0300000
v 2.0000000 3.6775736 0.0175736
v 2.0000000 3.6900000 0.0080385
v 2.0000000 3.7044709 0.0020445
v 2.0000000 3.7200000 0.0000000
v 2.0000000 3.7355291 0.0020445
v 2.0000000 3.7500000 0.0080385
v 2.0000000 3.7624264 0.0175736
v 2.0000000 3.7719615 0.0300000
v 2.0000000 3.7779555 0.0444709
v 2.0000000 3.7800000 0.0600000
v 2.0000000 3.7779555 0.0755291
v 2.0000000 3.7719615 0.0900000
v 2.0000000 3.7624264 0.1024264
v 2.0000000 3.7500000 0.1119615
v 2.0000000 3.7355291 0.1179555
v 2.0000000 3.7200000 0.1200000
v 2.0000000 3.7044709 0.1179555
v 2.0000000 3.6900000 0.1119615
v 2.0000000 3.6775736 0.1024264
v 2.0000000 3.6680385 0.0900000
v 2.0000000 3.6620445 0.0755291
v 0.0000000 3.7200000 0.0600000
v 2.0000000 3.7200000 0.0600000
f 501 502 526 525
f 502 503 527 526
f 503 504 528 527
f 504 505 529 528
f 505 506 530 529
f 506 507 531 530
f 507 508 532 531
f 508 509 533 532
f 509 510 534 533
f 510 511 535 534
f 511 512 536 535
f 512 513 537 536
f 513 514 538 537
f 514 515 539 538
f 515 516 540 539
f 516 517 541 540
f 517 518 542 541
f 518 519 543 542
f 519 520 544 543
f 520 521 545 544
f 521 522 546 545
f 522 523 547 546
f 523 524 548 547
f 524 501 525 548
f 549 502 501
f 550 525 526
f 549 503 502
f 550 526 527
f 549 504 503
f 550 527 528
f 549 505 504
f 550 528 529
f 549 506 505
f 550 529 530
f 549 507 506
f 550 530 531
f 549 508 507
f 550 531 532
f 549 509 508
f 550 532 533
f 549 510 509
f 550 533 534
f 549 511 510
f 550 534 535
f 549 512 511
f 550 535 536
f 549 513 512
f 550 536 537
f 549 514 513
f 550 537 538
f 549 515 514
f 550 538 539
f 549 516 515
f 550 539 540
f 549 517 516
f 550 540 541
f 549 518 517
f 550 541 542
f 549 519 518
f 550 542 543
f 549 520 519
f 550 543 544
f 549 521 520
f 550 544 545
f 549 522 521
f 550 545 546
f 549 523 522
f 550 546 547
f 549 524 523
f 550 547 548
f 549 501 524
f 550 548 525
