# https://github.com/mikedh/trimesh
v 0.00000000 0.00000000 -0.13000000
v 0.20000000 0.00000000 -0.13000000
v 0.20000000 0.00000000 0.13000000
v 0.00000000 0.00000000 0.13000000
v 0.19021130 0.06180340 -0.13000000
v 0.19021130 0.06180340 0.13000000
v 0.16180340 0.11755705 -0.13000000
v 0.16180340 0.11755705 0.13000000
v 0.11755705 0.16180340 -0.13000000
v 0.11755705 0.16180340 0.13000000
v 0.06180340 0.19021130 -0.13000000
v 0.06180340 0.19021130 0.13000000
v 0.00000000 0.20000000 -0.13000000
v 0.00000000 0.20000000 0.13000000
v -0.06180340 0.19021130 -0.13000000
v -0.06180340 0.19021130 0.13000000
v -0.11755705 0.16180340 -0.13000000
v -0.11755705 0.16180340 0.13000000
v -0.16180340 0.11755705 -0.13000000
v -0.16180340 0.11755705 0.13000000
v -0.19021130 0.06180340 -0.13000000
v -0.19021130 0.06180340 0.13000000
v -0.20000000 0.00000000 -0.13000000
v -0.20000000 0.00000000 0.13000000
v -0.19021130 -0.06180340 -0.13000000
v -0.19021130 -0.06180340 0.13000000
v -0.16180340 -0.11755705 -0.13000000
v -0.16180340 -0.11755705 0.13000000
v -0.11755705 -0.16180340 -0.13000000
v -0.11755705 -0.16180340 0.13000000
v -0.06180340 -0.19021130 -0.13000000
v -0.06180340 -0.19021130 0.13000000
v 0.00000000 -0.20000000 -0.13000000
v 0.00000000 -0.20000000 0.13000000
v 0.06180340 -0.19021130 -0.13000000
v 0.06180340 -0.19021130 0.13000000
v 0.11755705 -0.16180340 -0.13000000
v 0.11755705 -0.16180340 0.13000000
v 0.16180340 -0.11755705 -0.13000000
v 0.16180340 -0.11755705 0.13000000
v 0.19021130 -0.06180340 -0.13000000
v 0.19021130 -0.06180340 0.13000000
f 2 1 5
f 2 5 3
f 3 5 6
f 3 6 4
f 5 1 7
f 5 7 6
f 6 7 8
f 6 8 4
f 7 1 9
f 7 9 8
f 8 9 10
f 8 10 4
f 9 1 11
f 9 11 10
f 10 11 12
f 10 12 4
f 11 1 13
f 11 13 12
f 12 13 14
f 12 14 4
f 13 1 15
f 13 15 14
f 14 15 16
f 14 16 4
f 15 1 17
f 15 17 16
f 16 17 18
f 16 18 4
f 17 1 19
f 17 19 18
f 18 19 20
f 18 20 4
f 19 1 21
f 19 21 20
f 20 21 22
f 20 22 4
f 21 1 23
f 21 23 22
f 22 23 24
f 22 24 4
f 23 1 25
f 23 25 24
f 24 25 26
f 24 26 4
f 25 1 27
f 25 27 26
f 26 27 28
f 26 28 4
f 27 1 29
f 27 29 28
f 28 29 30
f 28 30 4
f 29 1 31
f 29 31 30
f 30 31 32
f 30 32 4
f 31 1 33
f 31 33 32
f 32 33 34
f 32 34 4
f 33 1 35
f 33 35 34
f 34 35 36
f 34 36 4
f 35 1 37
f 35 37 36
f 36 37 38
f 36 38 4
f 37 1 39
f 37 39 38
f 38 39 40
f 38 40 4
f 39 1 41
f 39 41 40
f 40 41 42
f 40 42 4
f 41 1 2
f 41 2 42
f 42 2 3
f 42 3 4

